# xmcd
#
# Track frame offsets:
#	150
#	10320
#	22755
#	37192
#	51307
#	66725
#	78437
#	95835
#	105845
#	118470
#	131752
#	146327
#	162075
#	178085
#
# Disc length: 2580 seconds
#
# Revision: 0
# Processed by: cddbd v1.4PL0 Copyright (c) Steve Scherf et al.
# Submitted via: EasyCDDAExtractor 4.6.9.1
#
DISCID=c50a120e
DTITLE=Various Artist - In Memory Of A Friend - A Tribute To The Music Of Randall Hyl
DTITLE=ton
DYEAR=2002
DGENRE=Bluegrass
TTITLE0=Wildfire - Rough Edges
TTITLE1=Rarely Herd - When The Dam Breaks
TTITLE2=Larry Stephenson - She's Come To Far
TTITLE3=Gary Ferguson - Hot Night In August
TTITLE4=Special Concensus - Thirty-Two Acres Of Bottomland
TTITLE5=Eddie and Marth Adcock - Pentecostal Camp Meeting
TTITLE6=Randall Hylton and Charlie Waller - Oh, ANita
TTITLE7=Continental Divide - Mountain Laurel
TTITLE8=Larry Stephenson - Only When I'm Leaving
TTITLE9=Rarely Herd - Keep The Candles Buring
TTITLE10=Continental Divide - I've Heard The Wind Blow Before
TTITLE11=Eddie and Marth Adcock - Slippers With Wings
TTITLE12=Larry Stephenson - Round About Way
TTITLE13=Randall Hylton - Room At The Top Of The Stairs
EXTD=
EXTT0=
EXTT1=
EXTT2=
EXTT3=
EXTT4=
EXTT5=
EXTT6=
EXTT7=
EXTT8=
EXTT9=
EXTT10=
EXTT11=
EXTT12=
EXTT13=
PLAYORDER=
